# xmcd
#
# Track frame offsets:
# 150
# 12013
# 28440
# 45619
# 58598
# 77710
# 94288
# 109439
# 128787
# 144864
#
# Disc length: 2245 seconds
#
#
# Revision: 0
# Processed by: cddbd v1.4PL0 Copyright (c) Steve Scherf et al.
# Submitted via: FreeRIP 2.51 
#
DISCID=8408c30a
DTITLE=Cowlicks, The - self titled
DYEAR=2002
DGENRE=Country
TTITLE0=She's a Tease
TTITLE1=Stateline
TTITLE2=Baby Please
TTITLE3=It's a Long Road
TTITLE4=End of the Night
TTITLE5=I Love it When it Rains
TTITLE6=Mezzanine
TTITLE7=Stupid Girl
TTITLE8=Sweet Rosette
TTITLE9=Sloop John B
EXTD=Self-released
EXTT0=
EXTT1=
EXTT2=
EXTT3=
EXTT4=
EXTT5=
EXTT6=
EXTT7=
EXTT8=
EXTT9=
PLAYORDER=
